<svg xmlns="http://www.w3.org/2000/svg" width="500" height="325" viewBox="0 0 500 325"><rect width="100%" height="100%" fill="#DDDDDD"/><path fill="#999999" d="m115.46 146.03-1.68 9.94q1.58-.33 3.04-.48 1.45-.15 2.8-.15 3.76 0 6.63 1.12t4.82 3.1 2.94 4.64.99 5.73q0 3.79-1.34 6.93-1.33 3.13-3.71 5.36t-5.63 3.45-7.08 1.22q-2.24 0-4.25-.46-2.02-.47-3.78-1.24-1.77-.78-3.27-1.78-1.5-1.01-2.69-2.13l2.51-3.47q.79-1.12 2.08-1.12.82 0 1.68.53t1.97 1.15q1.1.63 2.6 1.16t3.62.53q2.24 0 3.96-.73 1.71-.73 2.85-2.03t1.72-3.1q.57-1.8.57-3.91 0-3.89-2.26-6.09-2.26-2.19-6.68-2.19-3.4 0-6.96 1.25l-5.08-1.45 3.96-23.17h23.56v3.47q0 1.75-1.09 2.84-1.09 1.08-3.7 1.08zm59.83 16.47q0 6.24-1.33 10.84-1.34 4.6-3.7 7.61-2.36 3-5.58 4.47t-6.94 1.47q-3.73 0-6.92-1.47-3.18-1.47-5.53-4.47-2.34-3.01-3.66-7.61t-1.32-10.84q0-6.27 1.32-10.86 1.32-4.58 3.66-7.59 2.35-3 5.53-4.47 3.19-1.47 6.92-1.47 3.72 0 6.94 1.47t5.58 4.47q2.36 3.01 3.7 7.59 1.33 4.59 1.33 10.86m-8.41 0q0-5.18-.76-8.58t-2.03-5.41-2.92-2.82-3.43-.81q-1.75 0-3.39.81-1.63.81-2.88 2.82-1.26 2.01-2 5.41t-.74 8.58.74 8.58 2 5.41q1.25 2.02 2.88 2.82 1.64.81 3.39.81 1.78 0 3.43-.81 1.65-.8 2.92-2.82 1.27-2.01 2.03-5.41t.76-8.58m46.69 0q0 6.24-1.33 10.84-1.34 4.6-3.7 7.61-2.36 3-5.58 4.47t-6.94 1.47q-3.73 0-6.92-1.47-3.18-1.47-5.53-4.47-2.34-3.01-3.66-7.61t-1.32-10.84q0-6.27 1.32-10.86 1.32-4.58 3.66-7.59 2.35-3 5.53-4.47 3.19-1.47 6.92-1.47 3.72 0 6.94 1.47t5.58 4.47q2.36 3.01 3.7 7.59 1.33 4.59 1.33 10.86m-8.41 0q0-5.18-.76-8.58t-2.03-5.41-2.92-2.82-3.43-.81q-1.75 0-3.39.81-1.63.81-2.88 2.82-1.26 2.01-2 5.41t-.74 8.58.74 8.58 2 5.41q1.25 2.02 2.88 2.82 1.64.81 3.39.81 1.78 0 3.43-.81 1.65-.8 2.92-2.82 1.27-2.01 2.03-5.41t.76-8.58m60.82 12.94-4.33 4.25-11.18-11.18-11.29 11.25-4.32-4.26 11.28-11.32-10.76-10.75 4.29-4.29 10.76 10.75 10.69-10.69 4.36 4.29-10.72 10.73zm27.45-22.74-4.29-.76q.5-3.43 1.92-6.02 1.41-2.59 3.54-4.32 2.13-1.74 4.89-2.61 2.75-.88 5.92-.88 3.3 0 5.96.94 2.65.94 4.53 2.61 1.89 1.67 2.89 3.91 1.01 2.25 1.01 4.85 0 2.28-.51 4.01t-1.47 3.02-2.38 2.18-3.2 1.48q4.29 1.36 6.4 4.13 2.12 2.77 2.12 6.96 0 3.57-1.32 6.31-1.32 2.73-3.57 4.6-2.24 1.86-5.2 2.82-2.95.96-6.25.96-3.6 0-6.27-.83-2.67-.82-4.65-2.44t-3.37-3.96q-1.38-2.34-2.37-5.41l3.59-1.49q1.42-.59 2.66-.31t1.8 1.34q.59 1.15 1.3 2.27.71 1.13 1.7 2t2.33 1.42q1.33.54 3.18.54 2.08 0 3.63-.67 1.55-.68 2.59-1.77t1.55-2.42q.51-1.34.51-2.69 0-1.72-.36-3.12t-1.52-2.39q-1.15-.99-3.31-1.56-2.16-.56-5.79-.56v-5.8q3-.04 4.98-.57 1.98-.52 3.15-1.46t1.63-2.26q.47-1.32.47-2.91 0-3.36-1.89-5.11-1.88-1.75-5.01-1.75-1.45 0-2.67.41-1.23.41-2.2 1.16-.97.74-1.63 1.73t-.99 2.18q-.56 1.51-1.47 2.01-.91.49-2.56.23m50.56 26.07h12.24q1.32 0 2.1.74.77.74.77 1.97v4.88h-32.73v-2.71q0-.82.34-1.73.35-.91 1.11-1.63l14.48-14.52q1.82-1.85 3.26-3.53 1.43-1.69 2.39-3.34.95-1.65 1.47-3.35.51-1.7.51-3.58 0-1.71-.5-3.02-.49-1.3-1.4-2.19t-2.18-1.34q-1.27-.44-2.85-.44-1.45 0-2.69.41t-2.2 1.16q-.95.74-1.61 1.73t-.99 2.18q-.56 1.51-1.46 2.01-.89.49-2.57.23l-4.29-.76q.5-3.43 1.91-6.02 1.42-2.59 3.55-4.32 2.13-1.74 4.89-2.61 2.75-.88 5.92-.88 3.3 0 6.04.98 2.74.97 4.68 2.75 1.95 1.79 3.04 4.29 1.09 2.51 1.09 5.58 0 2.64-.78 4.88-.77 2.25-2.07 4.29-1.31 2.05-3.06 3.96-1.75 1.92-3.66 3.9l-10.76 10.99q1.55-.47 3.09-.71 1.53-.25 2.92-.25m33.23-32.74-1.68 9.94q1.58-.33 3.03-.48t2.81-.15q3.76 0 6.63 1.12t4.82 3.1q1.94 1.98 2.93 4.64t.99 5.73q0 3.79-1.33 6.93-1.34 3.13-3.71 5.36-2.38 2.23-5.63 3.45t-7.08 1.22q-2.24 0-4.26-.46-2.01-.47-3.77-1.24-1.77-.78-3.27-1.78-1.5-1.01-2.69-2.13l2.51-3.47q.79-1.12 2.08-1.12.82 0 1.68.53t1.96 1.15q1.11.63 2.61 1.16t3.61.53q2.25 0 3.96-.73 1.72-.73 2.86-2.03t1.71-3.1q.58-1.8.58-3.91 0-3.89-2.26-6.09-2.26-2.19-6.68-2.19-3.4 0-6.97 1.25l-5.08-1.45 3.96-23.17h23.56v3.47q0 1.75-1.08 2.84-1.09 1.08-3.7 1.08z"/></svg>